<svg width="119" height="76" viewBox="0 0 119 76" fill="none" xmlns="http://www.w3.org/2000/svg">
<path d="M85.9446 38.0001C85.9446 24.0089 74.105 12.6667 59.5001 12.6667C44.8952 12.6667 33.0557 24.0089 33.0557 38.0001C33.0557 50.6447 42.726 61.1252 55.3682 63.0257V45.323H48.6538V38.0001H55.3682V32.4188C55.3682 26.0697 59.3161 22.5626 65.3566 22.5626C68.2499 22.5626 71.2762 23.0574 71.2762 23.0574V29.2918H67.9416C64.6565 29.2918 63.6321 31.2446 63.6321 33.248V38.0001H70.9663L69.7938 45.323H63.632V63.0257C76.2742 61.1252 85.9446 50.6447 85.9446 38.0001Z" fill="#00D200"/>
<path d="M69.7939 45.3229L70.9663 38H63.6321V33.2478C63.6321 31.2445 64.6566 29.2917 67.9416 29.2917H71.2762V23.0573C71.2762 23.0573 68.2499 22.5625 65.3567 22.5625C59.3162 22.5625 55.3682 26.0696 55.3682 32.4188V38H48.6538V45.3229H55.3682V63.0256C56.7351 63.2308 58.1166 63.3337 59.5002 63.3333C60.9059 63.3333 62.2857 63.2279 63.6321 63.0256V45.3229H69.7939Z" fill="white"/>
</svg>
