<svg width="119" height="76" viewBox="0 0 119 76" fill="none" xmlns="http://www.w3.org/2000/svg">
<path d="M85.9444 38.0001C85.9444 24.0089 74.1049 12.6667 59.5 12.6667C44.8951 12.6667 33.0555 24.0089 33.0555 38.0001C33.0555 50.6447 42.7259 61.1252 55.368 63.0257V45.323H48.6536V38.0001H55.368V32.4188C55.368 26.0697 59.316 22.5626 65.3565 22.5626C68.2498 22.5626 71.2761 23.0574 71.2761 23.0574V29.2918H67.9415C64.6564 29.2918 63.632 31.2446 63.632 33.248V38.0001H70.9662L69.7937 45.323H63.6319V63.0257C76.2741 61.1252 85.9444 50.6447 85.9444 38.0001Z" fill="#00D200"/>
<path d="M69.7937 45.3229L70.9662 38H63.632V33.2478C63.632 31.2445 64.6564 29.2917 67.9415 29.2917H71.2761V23.0573C71.2761 23.0573 68.2498 22.5625 65.3565 22.5625C59.316 22.5625 55.3681 26.0696 55.3681 32.4188V38H48.6537V45.3229H55.3681V63.0256C56.735 63.2308 58.1165 63.3337 59.5 63.3333C60.9057 63.3333 62.2856 63.2279 63.632 63.0256V45.3229H69.7937Z" fill="white"/>
</svg>
